<?xml version="1.0" encoding="UTF-8"?>
<svg version="1.1" viewBox="52 115.6 153 74" xmlns="http://www.w3.org/2000/svg">
	<g transform="scale(2)">
		<rect class="dcg-svg-background" width="160" height="160" fill="#fff" />
		<g>
			<path class="dcg-svg-curve"
				d="m48.231 76.356v0l0.058524 1.3672 0.15625 1.2455 0.23438 1.1517 0.3125 1.1133 0.39062 1.0842 0.46875 1.0555 0.54688 1.0245 0.66406 1.0467 0.74219 0.99099 0.85938 0.97557 0.9375 0.90414 1.0547 0.85994 1.2109 0.82093 1.2109 0.67216 1.25 0.55916 1.25 0.43716 1.2891 0.33384 1.2891 0.22247 1.2891 0.11575 1.2891 0.011345 1.2891-0.092835 1.2891-0.19886 1.25-0.29796 1.25-0.40768 1.2109-0.5083 1.2109-0.63223 1.1719-0.7467 1.1328-0.87089 1.0156-0.93334 0.89844-0.97812 0.78125-1.0031 0.66406-1.0041 0.58594-1.0497 0.50781-1.0963 0.39062-1.0331 0.3125-1.0352 0.23438-1.0156 0.15625-0.94192 0.11719-1.21 0.027414-0.93621"
				fill="none" stroke="#a84811" stroke-width="5" />
			<path class="dcg-svg-curve"
				d="m48.231 76.356v0l0.058524-1.3672 0.15625-1.2455 0.23438-1.1517 0.3125-1.1133 0.39062-1.0842 0.46875-1.0555 0.54688-1.0245 0.66406-1.0467 0.74219-0.99099 0.85938-0.97557 0.9375-0.90414 1.0547-0.85994 1.2109-0.82093 1.2109-0.67216 1.25-0.55916 1.25-0.43716 1.2891-0.33384 1.2891-0.22247 1.2891-0.11575 1.2891-0.011345 1.2891 0.092835 1.2891 0.19886 1.25 0.29796 1.25 0.40768 1.2109 0.5083 1.2109 0.63223 1.1719 0.7467 1.1328 0.87089 1.0156 0.93334 0.89844 0.97812 0.78125 1.0031 0.66406 1.0041 0.58594 1.0497 0.50781 1.0963 0.39062 1.0331 0.3125 1.0352 0.23438 1.0156 0.15625 0.94192 0.11719 1.21 0.027414 0.93621"
				fill="none" stroke="#a84811" stroke-dasharray="" stroke-linecap="round" stroke-linejoin="round"
				stroke-miterlimit="10" stroke-opacity="1" stroke-width="5" paint-order="fill stroke markers" />
		</g>
		<g>
			<path class="dcg-svg-curve"
				d="m28.453 76.356v0l1.5153 1.6174 1.6406 1.5942 1.7578 1.5505 1.875 1.4959 2.0312 1.4574 2.0703 1.329 2.1094 1.207 2.1094 1.0709 2.1484 0.96103 2.1875 0.85259 2.1875 0.73258 2.1875 0.61824 2.2266 0.51651 2.2266 0.40644 2.2266 0.29919 2.2266 0.19394 2.2266 0.089975 2.2266-0.013409 2.2266-0.11688 2.2266-0.22111 2.2266-0.32681 2.2266-0.43471 2.1875-0.5351 2.1875-0.64594 2.1484-0.74692 2.1484-0.86411 2.1094-0.96923 2.1094-1.0973 2.0703-1.2114 2.0312-1.33 1.9922-1.4547 1.9141-1.5544 1.7969-1.6177 1.6406-1.6303 1.1326-1.2229"
				fill="none" stroke="#a84811" stroke-dasharray="" stroke-linecap="round" stroke-linejoin="round"
				stroke-miterlimit="10" stroke-opacity="1" stroke-width="5" paint-order="fill stroke markers" />
		</g>
		<g>
			<path
				d="m28.453 76.356v0l1.5153-1.6174 1.6406-1.5942 1.7578-1.5505 1.875-1.4959 2.0312-1.4574 2.0703-1.329 2.1094-1.207 2.1094-1.0709 2.1484-0.96103 2.1875-0.85259 2.1875-0.73258 2.1875-0.61824 2.2266-0.51651 2.2266-0.40644 2.2266-0.29919 2.2266-0.19394 2.2266-0.089975 2.2266 0.013409 2.2266 0.11688 2.2266 0.22111 2.2266 0.32681 2.2266 0.43471 2.1875 0.5351 2.1875 0.64594 2.1484 0.74692 2.1484 0.86411 2.1094 0.96923 2.1094 1.0973 2.0703 1.2114 2.0312 1.33 1.9922 1.4547 1.9141 1.5544 1.7969 1.6177 1.6406 1.6303 1.1326 1.2229"
				fill="none" stroke="#a84811" stroke-dasharray="" stroke-linecap="round" stroke-linejoin="round"
				stroke-miterlimit="10" stroke-opacity="1" stroke-width="5" paint-order="fill stroke markers" />
		</g>
		<g>
			<path
				d="m59.171 76.356v0l0.055668 0.74848 0.15625 0.7005 0.23438 0.62875 0.3125 0.58735 0.39062 0.54585 0.50781 0.53387 0.625 0.48437 0.70312 0.38572 0.70312 0.25541 0.74219 0.15009 0.74219 0.03798 0.74219-0.071566 0.70312-0.17319 0.70312-0.2876 0.66406-0.39805 0.625-0.52348 0.50781-0.58318 0.39062-0.61195 0.27344-0.59356 0.19531-0.62658 0.11719-0.69133 0.024558-0.4979"
				fill="none" stroke="#a84811" stroke-dasharray="" stroke-linecap="round" stroke-linejoin="round"
				stroke-miterlimit="10" stroke-opacity="1" stroke-width="5" paint-order="fill stroke markers" />
			<path class="dcg-svg-curve"
				d="m59.171 76.356v0l0.055668-0.74848 0.15625-0.7005 0.23438-0.62875 0.3125-0.58735 0.39062-0.54585 0.50781-0.53387 0.625-0.48437 0.70312-0.38572 0.70312-0.25541 0.74219-0.15009 0.74219-0.03798 0.74219 0.071566 0.70312 0.17319 0.70312 0.2876 0.66406 0.39805 0.625 0.52348 0.50781 0.58318 0.39062 0.61195 0.27344 0.59356 0.19531 0.62658 0.11719 0.69133 0.024558 0.4979"
				fill="none" stroke="#a84811" stroke-dasharray="" stroke-linecap="round" stroke-linejoin="round"
				stroke-miterlimit="10" stroke-opacity="1" stroke-width="5" paint-order="fill stroke markers" />
		</g>
	</g>
</svg>